<?xml version="1.0" standalone="no"?>
<!DOCTYPE svg PUBLIC "-//W3C//DTD SVG 20010904//EN"
 "http://www.w3.org/TR/2001/REC-SVG-20010904/DTD/svg10.dtd">
<svg version="1.0" xmlns="http://www.w3.org/2000/svg"
 width="80.000000pt" height="80.000000pt" viewBox="0 0 80.000000 80.000000"
 preserveAspectRatio="xMidYMid meet">

<g transform="translate(0.000000,80.000000) scale(0.100000,-0.100000)"
fill="#000000" stroke="none">
<path d="M398 752 c-7 -9 -20 -26 -28 -37 -11 -16 -9 -15 12 4 l27 23 3 -31 3
-32 32 30 c38 35 47 28 34 -28 -5 -23 -7 -41 -6 -41 2 0 20 9 39 21 43 25 49
9 14 -36 l-22 -28 22 6 c69 21 69 21 50 1 -17 -17 -16 -19 10 -36 15 -10 21
-18 12 -18 -8 1 -24 7 -34 15 -30 23 -42 18 -19 -7 11 -13 26 -34 32 -48 11
-22 9 -22 -17 6 -17 18 -34 40 -40 50 -17 30 -25 9 -9 -23 8 -15 17 -41 21
-58 6 -26 2 -23 -21 17 -22 36 -32 44 -44 38 -18 -11 -116 -14 -144 -5 -17 5
-25 -2 -43 -37 -18 -36 -21 -38 -15 -13 3 17 12 42 19 57 8 15 14 37 14 49 0
19 2 20 17 8 13 -11 13 -8 -3 15 -15 24 -20 26 -22 13 -2 -9 -7 -17 -12 -17
-12 0 -30 34 -30 55 0 13 4 14 21 5 24 -13 22 -15 39 29 l14 34 11 -39 c8 -28
13 -34 17 -22 7 18 -11 88 -23 88 -4 0 -14 -18 -23 -40 -18 -45 -22 -47 -55
-24 l-23 17 7 -42 7 -42 -37 7 c-35 6 -37 6 -26 -14 6 -12 16 -24 22 -28 7 -4
1 -15 -17 -29 -27 -22 -27 -23 -7 -29 15 -5 19 -13 16 -26 -7 -25 -20 -26 -26
-2 -2 9 -7 -14 -12 -52 -8 -70 -25 -75 -25 -7 0 32 -1 33 -14 16 -10 -14 -13
-42 -10 -103 3 -55 1 -81 -6 -77 -5 3 -10 2 -10 -4 0 -5 4 -13 10 -16 5 -3 14
-24 20 -45 7 -28 20 -44 39 -55 16 -8 31 -21 34 -30 4 -8 16 -15 27 -15 12 0
19 -4 16 -9 -4 -5 7 -12 23 -16 16 -3 35 -13 42 -21 17 -21 84 -54 108 -54 11
0 23 5 26 10 3 6 16 10 28 10 12 0 28 9 35 20 7 11 22 20 35 20 26 0 72 29 93
59 8 11 20 21 26 21 15 0 37 32 38 55 0 11 7 29 15 39 18 24 20 63 3 69 -7 2
0 2 17 -1 26 -4 28 -3 16 12 -7 9 -23 16 -35 17 -21 0 -21 0 -1 9 12 4 26 14
33 23 11 12 7 13 -30 6 -59 -11 -58 -11 -58 9 0 13 -2 14 -9 4 -12 -20 -48 4
-60 40 -11 31 -1 37 19 13 20 -24 23 -11 6 30 -9 21 -16 39 -16 40 0 2 12 6
28 10 l27 7 -29 23 c-19 15 -24 25 -16 30 6 4 9 14 6 22 -3 8 -2 11 3 8 5 -3
13 0 17 6 5 9 -3 10 -31 5 l-37 -7 7 41 7 42 -26 -17 c-31 -21 -29 -22 -45 32
l-12 43 -29 -33 -29 -32 -1 27 c0 34 -13 42 -32 20z m-143 -144 c34 -15 32
-41 -10 -86 -27 -29 -33 -32 -29 -15 4 12 15 29 25 39 27 25 23 39 -6 20 -13
-9 -30 -16 -37 -16 -7 0 -1 8 15 18 33 20 34 26 5 40 -33 15 3 16 37 0z m199
-129 c17 1 27 -2 23 -5 -4 -4 0 -15 9 -25 14 -16 14 -18 -8 -25 -29 -9 -152
-9 -167 0 -6 4 -11 21 -11 38 l0 30 63 -8 c34 -4 75 -6 91 -5z m43 -11 c-3 -8
-6 -5 -6 6 -1 11 2 17 5 13 3 -3 4 -12 1 -19z m-259 -80 c2 -17 8 -39 14 -47
11 -14 10 -14 -5 -1 -18 17 -35 80 -20 80 5 0 10 -14 11 -32z m19 -10 c-3 -8
-6 -5 -6 6 -1 11 2 17 5 13 3 -3 4 -12 1 -19z m69 -38 c3 0 1 7 -6 15 -10 12
-10 15 4 15 9 0 16 -4 16 -10 0 -5 7 -10 15 -10 8 0 15 -4 15 -9 0 -10 -13
-15 -68 -26 -28 -6 -33 -11 -28 -28 5 -22 5 -22 -10 -2 -9 12 -11 21 -4 23 5
2 10 22 10 45 l1 42 24 -27 c13 -16 27 -28 31 -28z m97 20 c-3 -11 -14 -20
-24 -20 -12 0 -19 7 -19 20 0 14 7 20 24 20 19 0 23 -4 19 -20z m93 -25 c-3
-13 -12 -23 -19 -20 -6 2 -24 6 -39 9 -29 7 -39 26 -13 26 8 0 15 5 15 10 0 6
7 10 16 10 14 0 14 -3 4 -15 -11 -13 -10 -14 3 -9 8 3 19 13 22 22 10 24 19
-2 11 -33z m-290 -45 c5 0 12 -12 15 -27 3 -15 14 -44 24 -63 l18 -35 -23 20
c-25 21 -20 6 9 -30 15 -19 15 -19 -4 -5 -11 8 -41 32 -67 54 l-47 38 27 34
c15 19 29 29 33 23 3 -6 10 -10 15 -9z m420 -35 c-3 -19 -15 -31 -78 -80 -35
-27 -54 -38 -43 -24 12 13 27 33 35 44 15 20 14 20 -8 1 -24 -21 -28 -16 -10
17 6 12 14 36 18 52 4 17 12 29 18 28 7 -2 12 2 12 8 0 6 13 0 29 -13 15 -13
28 -27 27 -33z"/>
<path d="M382 458 c-20 -20 -14 -40 9 -36 28 4 47 48 21 48 -10 0 -23 -5 -30
-12z"/>
<path d="M367 676 c-4 -10 -7 -25 -6 -34 0 -11 2 -12 6 -4 3 8 11 5 24 -10
l20 -23 -14 30 c-8 17 -16 37 -19 44 -3 12 -6 11 -11 -3z"/>
<path d="M465 623 c-20 -5 -45 -30 -45 -46 0 -4 12 1 26 12 21 16 30 18 40 10
11 -9 14 -7 14 10 0 11 -3 20 -7 20 -5 -1 -17 -3 -28 -6z"/>
</g>
</svg>
